<svg xmlns="http://www.w3.org/2000/svg" viewBox="0 0 240 128"><path fill="#FFFFFF" fill-rule="evenodd" d="M240.00 59.17 C238.89 54.54 235.97 45.69 233.35 41.06 C230.73 36.43 227.20 33.81 224.28 31.40 C221.36 28.98 218.64 27.77 215.82 26.57 C213.00 25.36 210.88 24.55 207.36 24.15 C203.83 23.75 198.09 23.85 194.66 24.15 C191.23 24.45 190.33 24.45 186.80 25.96 C183.27 27.47 180.35 36.33 173.50 33.21 C166.65 30.09 152.64 12.58 145.69 7.25 C138.74 1.91 136.02 2.42 131.79 1.21 C127.56 0.00 124.03 0.00 120.30 0.00 C116.57 0.00 113.75 -0.10 109.42 1.21 C105.09 2.52 101.26 2.52 94.31 7.85 C87.36 13.18 74.16 30.09 67.71 33.21 C61.26 36.33 59.95 28.18 55.62 26.57 C51.28 24.96 46.05 23.85 41.71 23.55 C37.38 23.25 32.95 24.05 29.62 24.75 C26.30 25.46 24.38 26.36 21.76 27.77 C19.14 29.18 16.83 30.29 13.90 33.21 C10.98 36.13 6.45 41.46 4.23 45.28 C2.02 49.11 1.31 52.23 0.60 56.15 C-0.10 60.08 -0.30 65.01 0.00 68.83 C0.30 72.65 1.11 75.77 2.42 79.09 C3.73 82.42 5.64 85.84 7.86 88.75 C10.08 91.67 12.80 94.39 15.72 96.60 C18.64 98.82 22.37 100.73 25.39 102.04 C28.41 103.35 29.92 104.15 33.85 104.45 C37.78 104.75 44.84 104.55 48.97 103.85 C53.10 103.14 55.62 101.84 58.64 100.23 C61.66 98.62 62.17 91.67 67.10 94.19 C72.04 96.70 83.32 110.79 88.26 115.32 C93.20 119.85 93.30 119.55 96.73 121.36 C100.15 123.17 104.18 125.18 108.82 126.19 C113.45 127.19 120.30 127.50 124.53 127.40 C128.77 127.30 130.28 126.99 134.21 125.58 C138.14 124.18 141.56 124.18 148.11 118.94 C154.66 113.71 167.36 97.11 173.50 94.19 C179.65 91.27 181.36 99.72 184.99 101.43 C188.61 103.14 191.23 104.05 195.26 104.45 C199.29 104.86 204.94 104.75 209.17 103.85 C213.40 102.94 217.53 100.73 220.65 99.02 C223.78 97.31 225.19 96.70 227.91 93.58 C230.63 90.47 234.96 84.43 236.98 80.30 C238.99 76.18 239.50 72.35 240.00 68.83 C240.50 65.31 241.11 63.80 240.00 59.17Z M94.80 63.70 L120.40 38.10 L146.00 63.70 L120.40 89.30 Z M38.91 64.36 L67.63 93.11 L69.61 91.13 L40.89 62.38 Z M63.31 35.70 L94.49 65.33 L96.42 63.31 L65.24 33.68 Z M201.89 63.04 L173.17 34.29 L171.19 36.27 L199.91 65.02 Z M177.49 91.70 L146.31 62.07 L144.38 64.09 L175.56 93.72 Z"/></svg>
